<?xml version="1.0" standalone="no"?>
<!DOCTYPE svg PUBLIC "-//W3C//DTD SVG 20010904//EN"
 "http://www.w3.org/TR/2001/REC-SVG-20010904/DTD/svg10.dtd">
<svg version="1.0" xmlns="http://www.w3.org/2000/svg"
 width="260.000000pt" height="260.000000pt" viewBox="0 0 260.000000 260.000000"
 preserveAspectRatio="xMidYMid meet">
<metadata>
Created by potrace 1.11, written by Peter Selinger 2001-2013
</metadata>
<g transform="translate(0.000000,260.000000) scale(0.100000,-0.100000)"
fill="#000000" stroke="none">
<path d="M1169 2596 c-2 -2 -24 -6 -49 -10 -93 -12 -117 -18 -210 -47 -479
-153 -826 -563 -898 -1059 -9 -61 -9 -304 0 -360 15 -92 19 -113 41 -193 5
-15 12 -33 49 -130 127 -324 441 -617 788 -731 78 -26 88 -28 210 -50 114 -21
350 -14 474 13 148 34 298 94 414 168 313 199 528 518 592 878 17 97 21 335 6
422 -78 465 -380 842 -814 1014 -69 28 -195 62 -275 75 -40 7 -322 16 -328 10z"/>
</g>
</svg>
